<svg width="40" height="40" viewBox="0 0 40 40" fill="none" xmlns="http://www.w3.org/2000/svg">
<path d="M34.8336 28.3391C36.2697 29.1465 36.7957 30.9827 35.7839 32.2829C33.6716 34.9973 30.8834 37.1352 27.6764 38.4682C23.5462 40.1849 18.9598 40.4676 14.6501 39.2712C10.3403 38.0747 6.55602 35.4682 3.90189 31.8681C1.24776 28.2679 -0.123002 23.882 0.00866804 19.4112C0.140338 14.9404 1.76684 10.6428 4.62824 7.20512C7.48964 3.76743 11.4208 1.38811 15.7935 0.447375C20.1662 -0.493358 24.728 0.0587989 28.75 2.01561C31.873 3.53505 34.5305 5.83329 36.4794 8.66731C37.4129 10.0248 36.7798 11.8269 35.2987 12.5483C33.8176 13.2697 32.0541 12.6267 31.0365 11.3311C29.7321 9.67063 28.0616 8.31537 26.1398 7.38038C23.3176 6.0073 20.1166 5.61985 17.0483 6.27996C13.98 6.94007 11.2215 8.60964 9.21366 11.0219C7.20582 13.4341 6.06451 16.4497 5.97212 19.5869C5.87973 22.724 6.84158 25.8016 8.70398 28.3278C10.5664 30.854 13.2218 32.683 16.246 33.5225C19.2701 34.3621 22.4884 34.1637 25.3865 32.9591C27.3599 32.1388 29.1074 30.8842 30.5072 29.3033C31.5993 28.0699 33.3975 27.5318 34.8336 28.3391Z" fill="#FF9F1C"/>
<circle cx="36" cy="20" r="4" fill="#2EC4B6"/>
</svg>
